# xmcd CD database file
#
# Track frame offsets:
#	180
#	13375
#	25492
#	37844
#	50069
#	63275
#	76934
#	89984
#	103563
#	114113
#	124915
#	136819
#	149563
#	162450
#	174287
#	189251
#
# Disc length: 2691 seconds
#
# Revision: 1
# Processed by: cddbd v1.5.2PL0 Copyright (c) Steve Scherf et al.
# Submitted via: CDex 1.51
#
DISCID=da0a8110
DTITLE=Various Artist - Blues Blues Blues
DYEAR=2005
DGENRE=Blues
TTITLE0=Big Bill Broonzy - Plow Hand Blues
TTITLE1=Brownie Mc Ghee - Back Door Stranger
TTITLE2=Brother George - Precious Lord
TTITLE3=Brownie Mc Ghee - Coal Miner Blues
TTITLE4=Big Joe Williams - Meet Me Around The Corner
TTITLE5=Big Joe Turner - Miss Brown Blues
TTITLE6=Big Boy Crudup - You Got The Reap
TTITLE7=Big Boy Crudup - Katie May
TTITLE8=Big Boy Turner - Jumpin' Tonight
TTITLE9=Jimmy Witherspoon - I'm Just A Lady's Man
TTITLE10=John Lee Hooker - Find Me A Woman
TTITLE11=B. B. King - Walkin' And Cryin'
TTITLE12=Willie Smith - 12th Street Rag
TTITLE13=John Lee Hooker - Let Your Daddy Ride
TTITLE14=Muddy Waters - Honey Bee
TTITLE15=Tab Smith - Boogie Joogie
EXTD=YEAR: 2005
EXTT0=
EXTT1=
EXTT2=
EXTT3=
EXTT4=
EXTT5=
EXTT6=
EXTT7=
EXTT8=
EXTT9=
EXTT10=
EXTT11=
EXTT12=
EXTT13=
EXTT14=
EXTT15=
PLAYORDER=
